<?xml version="1.0" standalone="no"?>
<!DOCTYPE svg PUBLIC "-//W3C//DTD SVG 20010904//EN"
 "http://www.w3.org/TR/2001/REC-SVG-20010904/DTD/svg10.dtd">
<svg version="1.0" xmlns="http://www.w3.org/2000/svg"
 width="512.000000pt" height="512.000000pt" viewBox="0 0 512.000000 512.000000"
 preserveAspectRatio="xMidYMid meet">

<g transform="translate(0.000000,512.000000) scale(0.100000,-0.100000)"
fill="white" stroke="none">
<path d="M2610 4640 l0 -110 850 0 850 0 0 110 0 110 -850 0 -850 0 0 -110z"/>
<path d="M2001 4552 c-19 -9 -44 -30 -55 -45 -20 -27 -21 -43 -24 -323 l-3
-294 44 -58 c135 -175 176 -311 184 -604 l6 -197 42 -21 c141 -68 156 -286 28
-401 -23 -21 -50 -40 -60 -43 -18 -6 -21 -19 -26 -114 -9 -174 -70 -343 -172
-477 l-45 -60 0 -260 0 -260 161 -69 c215 -92 295 -157 360 -294 l30 -62 1169
2 c1164 3 1169 3 1197 24 15 11 36 36 45 55 17 32 18 135 18 1719 0 1584 -1
1687 -18 1719 -36 71 -51 76 -263 79 l-189 3 0 -51 c0 -51 -12 -88 -34 -102
-6 -4 -428 -8 -937 -8 -919 0 -926 0 -944 20 -12 14 -20 41 -23 80 l-4 60
-227 0 c-195 0 -231 -2 -260 -18z m1084 -526 c172 -59 302 -171 380 -329 72
-145 90 -275 59 -425 -103 -510 -735 -706 -1104 -342 -79 78 -140 177 -172
280 -19 63 -23 96 -22 200 1 108 4 135 27 198 61 174 195 323 351 392 151 67
331 77 481 26z m739 -138 c23 -32 20 -54 -10 -77 -36 -28 -79 -27 -109 4 -29
28 -31 42 -9 73 12 18 25 22 64 22 39 0 52 -4 64 -22z m686 7 c18 -21 16 -64
-4 -83 -14 -15 -48 -17 -244 -20 -254 -3 -275 1 -280 54 -6 62 2 64 272 64
205 0 246 -2 256 -15z m-296 -507 c23 -32 20 -54 -10 -77 -25 -20 -39 -21
-251 -21 l-224 0 -24 25 c-29 28 -31 42 -9 73 15 22 18 22 259 22 241 0 244 0
259 -22z m296 7 c18 -21 16 -64 -4 -83 -21 -21 -96 -23 -119 -3 -21 17 -22 65
-1 85 21 21 107 22 124 1z m-696 -517 c23 -32 20 -54 -10 -77 -22 -17 -41 -21
-109 -21 -68 0 -87 4 -109 21 -30 23 -33 45 -10 77 14 20 23 22 119 22 96 0
105 -2 119 -22z m694 10 c24 -31 23 -57 -2 -83 l-25 -25 -233 0 c-259 0 -278
4 -278 60 0 59 7 60 279 60 187 0 251 -3 259 -12z m-1674 -654 c20 -19 20 -54
2 -80 -13 -17 -30 -19 -201 -22 -155 -3 -191 -1 -210 12 -32 21 -40 52 -21 81
l16 25 200 0 c167 0 201 -2 214 -16z m314 4 c17 -17 15 -73 -3 -88 -8 -7 -34
-15 -58 -17 -74 -8 -123 52 -80 99 19 21 121 26 141 6z m1004 -5 c26 -23 22
-58 -8 -82 -26 -20 -37 -21 -428 -21 -444 0 -449 1 -454 58 -6 64 -22 62 446
62 382 0 427 -2 444 -17z m358 2 c18 -21 16 -64 -4 -83 -22 -22 -179 -29 -216
-10 -31 16 -39 68 -15 92 23 23 216 24 235 1z m-1361 -599 c21 -25 9 -79 -19
-93 -31 -16 -654 -19 -694 -3 -39 14 -53 53 -32 85 l16 25 359 0 c299 0 361
-2 370 -14z m590 0 c21 -25 9 -79 -19 -93 -33 -17 -342 -18 -373 -2 -41 22
-49 59 -20 91 14 16 35 18 208 18 155 0 195 -3 204 -14z m217 -11 c33 -51 -22
-104 -93 -90 -38 7 -67 43 -57 71 14 37 26 44 80 44 46 0 56 -3 70 -25z m554
10 c18 -21 16 -64 -4 -83 -14 -14 -45 -17 -194 -20 -192 -3 -225 2 -244 42 -9
20 -8 30 6 51 l16 25 204 0 c169 0 206 -3 216 -15z"/>
<path d="M2753 3926 c-190 -46 -353 -210 -398 -397 -69 -294 111 -584 406
-654 239 -56 489 64 599 288 91 186 75 380 -46 553 -122 174 -353 260 -561
210z m469 -263 c43 -39 31 -56 -220 -306 -144 -143 -246 -237 -257 -237 -11 0
-66 47 -128 109 -94 94 -108 112 -102 132 4 13 14 30 23 37 34 26 63 14 136
-58 l71 -69 206 204 c213 213 230 225 271 188z"/>
<path d="M1121 4050 c-292 -62 -519 -270 -602 -550 -18 -64 -22 -107 -26 -292
-5 -208 -4 -217 15 -227 10 -6 22 -7 26 -4 3 3 6 38 7 77 0 39 4 109 8 154 9
112 9 112 175 112 386 0 773 96 1001 249 71 48 107 52 131 16 23 -35 8 -64
-53 -109 -124 -91 -372 -187 -584 -227 -169 -31 -167 -28 -60 -83 107 -55 201
-89 321 -116 158 -35 384 -50 505 -33 l47 6 -5 196 c-5 211 -16 273 -67 387
-89 199 -269 356 -485 424 -79 25 -277 36 -354 20z"/>
<path d="M666 3143 c-3 -32 -8 -107 -12 -167 -6 -96 -9 -112 -30 -133 -32 -32
-57 -29 -144 17 -41 22 -80 40 -87 40 -24 0 -43 -44 -43 -98 0 -50 3 -58 39
-93 21 -22 53 -42 71 -45 49 -10 57 -34 63 -179 5 -145 25 -224 83 -335 71
-136 197 -258 339 -325 95 -45 172 -65 285 -72 314 -19 609 166 732 459 41 96
58 186 58 303 0 106 13 145 48 145 28 0 81 38 102 72 29 48 27 118 -5 152 -25
27 -27 27 -98 19 -39 -4 -153 -8 -252 -7 -199 1 -344 22 -491 69 -115 38 -292
127 -369 185 l-66 50 -109 0 -108 0 -6 -57z"/>
<path d="M1548 1675 c-149 -52 -372 -59 -508 -16 -36 11 -66 21 -67 21 -2 0
-3 -44 -3 -99 l0 -98 68 -22 c173 -54 340 -54 515 1 l67 21 0 108 c0 60 -1
109 -2 108 -2 0 -33 -11 -70 -24z"/>
<path d="M662 1262 c-139 -60 -272 -123 -295 -140 -23 -16 -59 -54 -79 -83
-61 -89 -68 -131 -68 -417 l0 -252 1076 0 1075 0 -3 273 c-3 271 -3 272 -30
329 -31 67 -96 140 -152 173 -23 13 -149 69 -281 125 l-239 102 -86 -26 c-183
-55 -354 -59 -530 -11 -52 14 -104 28 -115 30 -12 3 -122 -38 -273 -103z"/>
</g>
</svg>
