<?xml version="1.0" standalone="no"?>
<!DOCTYPE svg PUBLIC "-//W3C//DTD SVG 20010904//EN"
 "http://www.w3.org/TR/2001/REC-SVG-20010904/DTD/svg10.dtd">
<svg version="1.0" xmlns="http://www.w3.org/2000/svg"
 width="512.000000pt" height="512.000000pt" viewBox="0 0 512.000000 512.000000"
 preserveAspectRatio="xMidYMid meet">

<g transform="translate(0.000000,512.000000) scale(0.100000,-0.100000)"
fill="white" stroke="none">
<path d="M665 4455 l-25 -24 0 -1509 c0 -1471 0 -1510 19 -1533 l19 -24 604
-6 c673 -6 684 -7 898 -78 63 -22 157 -59 208 -84 l92 -44 0 1569 0 1569 -76
35 c-160 74 -382 133 -566 149 l-78 7 0 -930 c0 -512 -3 -938 -6 -947 -7 -18
-55 -45 -81 -45 -9 0 -66 32 -125 71 l-108 72 -108 -72 c-59 -39 -116 -71
-125 -71 -26 0 -74 27 -81 45 -3 9 -6 435 -6 946 l0 929 -215 0 c-216 0 -216
0 -240 -25z"/>
<path d="M3265 4473 c-163 -15 -369 -69 -521 -136 l-99 -43 -3 -1572 -2 -1572
88 44 c160 80 338 134 522 156 48 6 320 10 633 10 l548 0 24 25 25 24 0 1511
0 1511 -25 24 -24 25 -563 -2 c-310 -1 -581 -3 -603 -5z m735 -1193 l0 -80
-480 0 -480 0 0 80 0 80 480 0 480 0 0 -80z m-310 -320 l0 -80 -325 0 -325 0
0 80 0 80 325 0 325 0 0 -80z m310 -320 l0 -80 -480 0 -480 0 0 80 0 80 480 0
480 0 0 -80z m-310 -320 l0 -80 -325 0 -325 0 0 80 0 80 325 0 325 0 0 -80z
m310 -320 l0 -80 -480 0 -480 0 0 80 0 80 480 0 480 0 0 -80z"/>
<path d="M265 4135 l-25 -24 0 -1631 0 -1631 25 -24 24 -25 2271 0 2271 0 24
25 25 24 0 1631 0 1631 -25 24 c-22 23 -32 25 -120 25 l-95 0 0 -1376 c0
-1026 -3 -1387 -12 -1416 -15 -49 -76 -120 -125 -144 -36 -18 -78 -19 -653
-25 -572 -5 -621 -7 -705 -26 -133 -31 -204 -56 -370 -136 -139 -67 -155 -72
-215 -72 -59 0 -76 5 -170 52 -176 87 -284 125 -450 159 -73 15 -168 18 -691
23 l-606 6 -49 30 c-30 19 -60 49 -79 79 l-30 49 -3 1399 -2 1398 -96 0 c-87
0 -97 -2 -119 -25z"/>
</g>
</svg>
