<?xml version="1.0" standalone="no"?>
<!DOCTYPE svg PUBLIC "-//W3C//DTD SVG 20010904//EN"
 "http://www.w3.org/TR/2001/REC-SVG-20010904/DTD/svg10.dtd">
<svg version="1.0" xmlns="http://www.w3.org/2000/svg"
 width="512.000000pt" height="512.000000pt" viewBox="0 0 512.000000 512.000000"
 preserveAspectRatio="xMidYMid meet">

<g transform="translate(0.000000,512.000000) scale(0.100000,-0.100000)"
fill="white" stroke="none">
<path d="M363 4900 c-170 -25 -321 -170 -353 -339 -7 -35 -10 -778 -10 -2160
0 -2073 0 -2106 20 -2138 22 -37 69 -54 115 -41 21 5 191 169 555 533 l525
525 1545 0 c1297 0 1555 3 1605 14 143 34 256 139 306 284 18 53 19 98 19 975
l0 921 180 181 c142 144 185 194 205 238 76 165 48 335 -76 463 -63 64 -137
101 -232 116 l-75 12 -5 54 c-12 111 -102 248 -203 307 -110 64 60 59 -2104
61 -1081 1 -1988 -2 -2017 -6z m3992 -229 c79 -36 125 -113 125 -211 l0 -46
-605 -604 -605 -605 -1071 -5 -1071 -5 -29 -33 c-41 -46 -40 -99 2 -141 l31
-31 979 0 c538 0 979 -1 979 -3 0 -2 -22 -115 -50 -252 -27 -137 -50 -266 -50
-288 0 -53 45 -97 99 -97 29 0 437 77 561 105 15 4 182 163 427 408 l403 402
0 -800 c0 -755 -1 -802 -19 -840 -22 -49 -65 -93 -111 -114 -32 -14 -188 -16
-1630 -19 l-1594 -2 -458 -458 -458 -457 2 1980 3 1980 22 42 c23 43 69 84
113 102 16 6 725 10 1995 10 1885 1 1972 0 2010 -18z m445 -426 c30 -16 73
-60 90 -95 18 -34 16 -119 -4 -161 -9 -19 -56 -74 -104 -122 l-87 -87 -138
138 -138 138 99 96 c82 79 107 98 143 106 49 11 101 6 139 -13z m-744 -1104
l-483 -483 -168 -34 c-93 -19 -170 -32 -172 -31 -1 2 12 79 31 172 l34 168
483 483 484 484 137 -137 138 -138 -484 -484z"/>
<path d="M1134 3830 c-35 -14 -64 -59 -64 -101 0 -29 7 -45 31 -68 l31 -31
1215 0 1215 0 29 29 c54 54 36 146 -33 170 -38 13 -2392 14 -2424 1z"/>
<path d="M1134 2550 c-35 -14 -64 -59 -64 -101 0 -29 7 -45 31 -68 l31 -31
678 0 678 0 31 26 c38 32 49 80 27 123 -33 63 -9 61 -733 60 -362 0 -668 -4
-679 -9z"/>
</g>
</svg>
